<svg xmlns="http://www.w3.org/2000/svg" width="39.077" height="34.007" viewBox="0 0 39.077 34.007"><defs><style>.a{fill:#cbb085;}</style></defs><g transform="translate(-250.686 -2224.868)"><path class="a" d="M270.221,2251.534c-1.47,1.17-2.92,2.324-4.372,3.476q-2.275,1.807-4.553,3.613c-.425.338-.634.334-1.063-.007q-4.537-3.6-9.08-7.2a1.1,1.1,0,0,1-.467-.956q.024-6.914.017-13.826,0-4.112-.008-8.225c0-.312.029-.595.344-.752a.7.7,0,0,1,.807.179q4.312,3.431,8.629,6.855c.092.072.185.142.3.231.67-.533,1.318-1.084,2.005-1.579a.886.886,0,0,0,.385-.937,6.728,6.728,0,0,1,1.2-4.388,7.137,7.137,0,0,1,12.976,2.96,15,15,0,0,1,.021,1.832c0,.115.014.276.087.336.729.6,1.472,1.181,2.225,1.78.55-.435,1.087-.859,1.622-1.284q3.662-2.909,7.322-5.82a.682.682,0,0,1,.776-.172.712.712,0,0,1,.359.745q-.005,11.044.005,22.087a1.037,1.037,0,0,1-.432.9q-4.559,3.6-9.1,7.228c-.441.351-.644.35-1.093-.005l-8.657-6.878C270.4,2251.671,270.327,2251.615,270.221,2251.534Zm-6.633-17.259c-.7.557-1.408,1.107-2.1,1.676a.5.5,0,0,0-.106.348q-.005,10.173,0,20.344c0,.088.015.177.027.3.128-.1.222-.164.314-.237l7.99-6.347a.655.655,0,0,1,1.008-.009l6.436,5.112,1.9,1.51v-.347c0-6.51-.018-13.02.023-19.529a1.781,1.781,0,0,0-.876-1.767,13.986,13.986,0,0,1-1.3-1.007,18.7,18.7,0,0,1-2.21,3.8c-1.285,1.723-2.6,3.422-3.909,5.128a.612.612,0,0,1-1.043-.023c-.428-.55-.846-1.108-1.277-1.656a47.355,47.355,0,0,1-3.848-5.341C264.262,2235.6,263.942,2234.942,263.588,2234.275Zm-11.652,10.037c.47-.154.893-.3,1.319-.429.48-.15.818-.021.936.345s-.087.671-.553.829-.954.348-1.437.5c-.222.071-.275.195-.273.415q.013,2.037,0,4.075a.7.7,0,0,0,.3.623q3.449,2.723,6.883,5.463c.329.261.661.518,1.027.806v-12.959a3.273,3.273,0,0,1-.588.158c-.741.059-1.483.095-2.225.142a.637.637,0,0,1-.753-.567.622.622,0,0,1,.632-.665c.587-.056,1.176-.114,1.765-.13.392-.01.787.05,1.193.079,0-2.208,0-4.5-.009-6.791a.566.566,0,0,0-.219-.364q-3.864-3.082-7.739-6.15a2.624,2.624,0,0,0-.25-.151Zm28.373,12.633c.137-.1.231-.169.32-.241l7.464-5.927c.458-.363.523-.572.356-1.18-.134.045-.267.092-.4.134-.563.176-1.123.362-1.691.521a.61.61,0,0,1-.808-.428.629.629,0,0,1,.467-.758c.089-.031.183-.049.272-.078l2.2-.709v-18.731a1.489,1.489,0,0,0-.147.088q-3.944,3.123-7.881,6.255a.557.557,0,0,0-.159.393q-.013,6.2-.006,12.406v1.036c.129.009.221.021.312.019.614-.017,1.227-.039,1.84-.057a.622.622,0,0,1,.719.565.61.61,0,0,1-.627.661c-.376.032-.753.056-1.131.067-.361.011-.722,0-1.1,0Zm-10.028-15.07c.669-.854,1.309-1.656,1.934-2.47a27.277,27.277,0,0,0,3.23-4.859,6.807,6.807,0,0,0,.7-2.172,5.9,5.9,0,0,0-6.784-6.2,5.777,5.777,0,0,0-4.266,8.384A58.54,58.54,0,0,0,270.281,2241.875Z"/><path class="a" d="M273.923,2251.566a4.7,4.7,0,0,1-.484-.239q-.956-.638-1.9-1.289a.614.614,0,0,1-.213-.862.59.59,0,0,1,.836-.2c.714.458,1.415.938,2.107,1.428a.505.505,0,0,1,.165.693A2.425,2.425,0,0,1,273.923,2251.566Z" transform="translate(-2.939 -3.436)"/><path class="a" d="M280.92,2253.741c.006.463-.332.785-.724.676-.828-.229-1.648-.494-2.459-.778a.583.583,0,0,1-.326-.793.618.618,0,0,1,.789-.345q1.147.36,2.291.724A.564.564,0,0,1,280.92,2253.741Z" transform="translate(-3.817 -3.949)"/><path class="a" d="M265.269,2246.249c.878.261,1.762.5,2.631.793a.572.572,0,0,1,.272.756.6.6,0,0,1-.752.358c-.375-.1-.741-.234-1.116-.335-.409-.111-.826-.189-1.234-.3a.6.6,0,0,1-.436-.679A.748.748,0,0,1,265.269,2246.249Z" transform="translate(-1.995 -3.059)"/><path class="a" d="M272.87,2228.441a4.1,4.1,0,1,1-4.1,4.105A4.12,4.12,0,0,1,272.87,2228.441Zm-2.852,4.083a2.857,2.857,0,1,0,2.882-2.844A2.851,2.851,0,0,0,270.018,2232.524Z" transform="translate(-2.587 -0.511)"/></g></svg>