<svg xmlns="http://www.w3.org/2000/svg" width="37.412" height="32.703" viewBox="0 0 37.412 32.703"><defs><style>.a{fill:#cbb085;}</style></defs><g transform="translate(-115.021 -2225.963)"><path class="a" d="M129.06,2252.459v6.165l-3.779-3.892-3.86,3.934-.147-.079v-6.13H118.4a3.127,3.127,0,0,1-3.379-3.362q0-9.957,0-19.914a3.1,3.1,0,0,1,3.227-3.215q15.461,0,30.921,0a3.11,3.11,0,0,1,3.254,3.239q.007,9.957,0,19.914a3.112,3.112,0,0,1-3.353,3.337q-9.715,0-19.429,0Zm0-1.565h.536l19.428,0a1.618,1.618,0,0,0,1.851-1.847q0-9.859,0-19.718a1.6,1.6,0,0,0-1.831-1.808H118.409a1.6,1.6,0,0,0-1.823,1.815q0,5.769,0,11.539,0,4.138,0,8.277a1.583,1.583,0,0,0,1.758,1.741q1.241,0,2.484,0c.138,0,.277-.02.433-.032,0-.938.019-1.831-.012-2.722a1.347,1.347,0,0,0-.264-.729,5.3,5.3,0,0,1-.81-5.709,5.435,5.435,0,0,1,9.841-.248,5.247,5.247,0,0,1-.7,5.96.957.957,0,0,0-.244.5C129.043,2248.886,129.055,2249.858,129.055,2250.895Zm-3.872-10.9a3.894,3.894,0,1,0,3.863,3.884A3.906,3.906,0,0,0,125.183,2239.992Zm2.278,14.921v-6.073a5.6,5.6,0,0,1-4.612.006v6.111l2.308-2.382Z" transform="translate(0)"/><path class="a" d="M121.3,2237.912v-1.5h28v1.5Z" transform="translate(-1.581 -2.629)"/><path class="a" d="M154.039,2242.665v1.5h-13.97v-1.5Z" transform="translate(-6.305 -4.204)"/><path class="a" d="M155.608,2248.916v1.5H146.3v-1.5Z" transform="translate(-7.872 -5.778)"/></g></svg>