<svg xmlns="http://www.w3.org/2000/svg" width="48.334" height="19.247" viewBox="0 0 48.334 19.247"><defs><style>.a{fill:#ddb77f;}.b{fill:#1d1d1b;}</style></defs><g transform="translate(-79.423 -8255.235)"><path class="a" d="M92.135,5861.678v.243c-.068.011-.133.024-.2.033a1.051,1.051,0,0,0-1.02,1.134c-.009.29,0,.58,0,.871q0,3,0,6a2.314,2.314,0,0,0,.037.432.982.982,0,0,0,.956.887l.225.025.02.238H87.987l-.013-.234c.109-.014.205-.024.3-.038a1.007,1.007,0,0,0,.924-.927,2.453,2.453,0,0,0,.02-.343q0-3.459,0-6.92a.29.29,0,0,0-.053-.182c-.112.27-.227.54-.337.811q-1.542,3.786-3.077,7.574a.35.35,0,0,1-.4.272.3.3,0,0,1-.306-.205q-1.769-3.976-3.548-7.947a2.732,2.732,0,0,0-.277-.509c0,.063-.013.126-.013.188q0,3.438,0,6.875a3.115,3.115,0,0,0,.016.32,1.033,1.033,0,0,0,1.006,1.049c.07.011.131.081.2.123-.067.038-.134.108-.2.108-.839.008-1.678,0-2.524,0-.059-.151-.055-.229.129-.253a1.028,1.028,0,0,0,1.059-1.09,3.021,3.021,0,0,0,.013-.343q0-3.265,0-6.531v-.023c0-.85-.232-1.312-1.217-1.4v-.246c.064-.005.123-.016.183-.016.931,0,1.863,0,2.795-.006.145,0,.209.031.24.19a3.176,3.176,0,0,0,.213.65q1.3,2.969,2.61,5.932c.143.325.285.649.451,1.028.172-.422.323-.786.47-1.151q1.3-3.216,2.594-6.436a.282.282,0,0,1,.314-.215c.786.011,1.573.006,2.36.008.067,0,.134.008.216.013" transform="translate(-0.138 2393.658)"/><path class="a" d="M116.55,5871l.13.239a.928.928,0,0,0,.493-.732,3.686,3.686,0,0,0,.059-.705c.006-1.176,0-2.352,0-3.528q0-.092,0-.183c-.027-.69-.224-.9-.9-.946-.055-.143-.024-.214.148-.239q1.019-.15,2.035-.325c.157-.028.243.023.267.163a4.732,4.732,0,0,1,.09.747c.009,1.436,0,2.871.012,4.307a3.9,3.9,0,0,0,.132.923.775.775,0,0,0,.659.594c.058.01.1.093.155.142-.062.035-.124.1-.187.1-1.054.007-2.109.04-3.16-.019a4.895,4.895,0,0,0-.769.1,4.884,4.884,0,0,1-1.133,0c-.461-.07-.587-.242-.859-.88a2.59,2.59,0,0,1-3.333.658,1.918,1.918,0,0,1,.149-3.288,14.586,14.586,0,0,1,1.4-.6l.068.057c-.115.2-.216.4-.348.586a2.342,2.342,0,0,0-.38,2.187,1,1,0,0,0,.886.784,1.1,1.1,0,0,0,1.111-.577,2.826,2.826,0,0,0,.4-1.439c.017-1.123.012-2.245.009-3.368a.724.724,0,0,0-.482-.712,2.194,2.194,0,0,0-1.3-.1.594.594,0,0,0-.458.375,6.724,6.724,0,0,1-.3.665.7.7,0,0,1-.67.436.522.522,0,0,1-.478-.37.7.7,0,0,1,.231-.765,2.158,2.158,0,0,1,.983-.565,4.732,4.732,0,0,1,2.839.1,1.688,1.688,0,0,1,1.16,1.385,5.72,5.72,0,0,1,.085.933c.01,1.046,0,2.092,0,3.139v.229c.007.755.355.963,1.028.613l.227-.119" transform="translate(-0.138 2393.658)"/><path class="a" d="M91.891,5864.657c.061,0,.128-.011.195-.011.978,0,1.956,0,2.933,0,.078,0,.155.067.233.1-.059.052-.11.126-.179.153a.369.369,0,0,0-.265.408,3.891,3.891,0,0,0,.2.887c.456,1.158.939,2.3,1.4,3.459a.465.465,0,0,1,.012.318c-.485,1.162-.963,2.328-1.484,3.474a3.391,3.391,0,0,1-.712,1.049,1.741,1.741,0,0,1-1.9.413.784.784,0,0,1-.509-.916.557.557,0,0,1,.381-.473.62.62,0,0,1,.658.144c.126.122.237.261.372.372a.622.622,0,0,0,.874.009,2.589,2.589,0,0,0,.53-.7c.262-.516.477-1.056.713-1.586a.575.575,0,0,0,0-.482c-.69-1.664-1.36-3.336-2.062-4.995a4.18,4.18,0,0,0-.638-1.02,1.487,1.487,0,0,0-.621-.352c-.141-.054-.191-.1-.13-.253" transform="translate(-0.138 2393.658)"/><path class="a" d="M127.877,5871.546c-.078,0-.145.01-.213.01-1.022,0-2.045,0-3.068,0-.078,0-.208-.047-.225-.1-.047-.148.1-.137.186-.154a.774.774,0,0,0,.629-.6,3.4,3.4,0,0,0,.115-.834c.012-1.06.017-2.122,0-3.182a2.228,2.228,0,0,0-.174-.84c-.213-.487-.493-.634-1.163-.73-.088-.4-.062-.48.329-.509a4.419,4.419,0,0,1,1.178.038,1.673,1.673,0,0,1,1.338,1.27,4.135,4.135,0,0,1,.135,1.015c.018.954,0,1.909.012,2.862a3.921,3.921,0,0,0,.124.9.754.754,0,0,0,.666.61c.149.018.176.091.134.243" transform="translate(-0.138 2393.658)"/><path class="a" d="M109.224,5871.646h-3.486c-.02-.118-.052-.216.112-.245a.944.944,0,0,0,.775-.924,3.543,3.543,0,0,0,.035-.525q0-1.82,0-3.64c0-.092,0-.184-.013-.274-.066-.621-.274-.8-.9-.776-.04-.113-.075-.223.1-.249.806-.121,1.612-.238,2.46-.363v.286c0,1.641,0,3.282,0,4.923a4.146,4.146,0,0,0,.077.817.841.841,0,0,0,.686.712c.142.028.2.089.147.258" transform="translate(-0.138 2393.658)"/><path class="a" d="M119.666,5865.215c-.068-.381-.041-.431.315-.542a2.646,2.646,0,0,1,1.6,0,1.945,1.945,0,0,1,1.328,1.94c.011,1.069,0,2.138.008,3.207a3.538,3.538,0,0,0,.1.815.823.823,0,0,0,.692.679c.055.009.1.1.144.15-.057.032-.115.09-.173.091q-1.581.007-3.162,0c-.054,0-.108-.067-.162-.1.037-.046.069-.127.112-.133.517-.072.7-.439.789-.886a2.481,2.481,0,0,0,.044-.455c0-1.122.007-2.245,0-3.368a1.855,1.855,0,0,0-.112-.6,1.16,1.16,0,0,0-1.517-.791" transform="translate(-0.138 2393.658)"/><path class="a" d="M102.885,5871.649h-3.4c-.06-.133-.054-.213.112-.245a.786.786,0,0,0,.642-.614,3.209,3.209,0,0,0,.117-.765c.011-1.252,0-2.5,0-3.757,0-.023,0-.046,0-.068-.023-.681-.223-.9-.887-.96-.053-.134-.021-.212.135-.237.671-.1,1.342-.211,2.011-.328.165-.029.253.026.278.177a4.018,4.018,0,0,1,.077.634c.008,1.459,0,2.917.013,4.376a4.226,4.226,0,0,0,.131.968.749.749,0,0,0,.644.578c.151.025.171.095.123.241" transform="translate(-0.138 2393.658)"/><path class="a" d="M107.451,5861.577a.943.943,0,0,1,.941.968.929.929,0,0,1-.944.961.943.943,0,0,1-.954-.98.932.932,0,0,1,.957-.949" transform="translate(-0.138 2393.658)"/><path class="a" d="M99.526,5864.658v.189c-.014.011-.024.027-.036.029a1.755,1.755,0,0,0-1.37,1.154c-.4.859-1.3,3.042-1.675,3.911-.075.174-.152.348-.239.549a.564.564,0,0,1-.111-.613c.371-.819,1.274-2.955,1.617-3.786a2.165,2.165,0,0,0,.148-.641.469.469,0,0,0-.433-.545c-.09-.02-.235,0-.19-.152.016-.053.146-.1.224-.1.618-.008,1.236,0,1.853,0,.067,0,.135.007.212.012" transform="translate(-0.138 2393.658)"/><path class="a" d="M102.756,5865.258c-.043-.381-.035-.412.3-.508a2.315,2.315,0,0,1,2.011.307.941.941,0,0,1,.31.382.623.623,0,0,1-.186.725.708.708,0,0,1-.755-.021,1.279,1.279,0,0,1-.231-.25,1.611,1.611,0,0,1-.133-.24c-.31-.622-.695-.743-1.314-.4" transform="translate(-0.138 2393.658)"/><g transform="translate(-0.138 2393.658)"><path class="b" d="M81.531,5880.174a.676.676,0,0,0,.444.264,5.126,5.126,0,0,0,1.05.077c.025,0,.038.026.038.077s-.013.078-.038.078c-.352,0-.627,0-.824-.013l-1.121-.013-.85.013c-.154.008-.369.013-.644.013-.017,0-.025-.026-.025-.078s.008-.077.025-.077a3.1,3.1,0,0,0,.741-.064.459.459,0,0,0,.322-.251,1.482,1.482,0,0,0,.083-.573v-5.963a1.422,1.422,0,0,0-.083-.566.48.48,0,0,0-.322-.251,2.814,2.814,0,0,0-.741-.071c-.017,0-.025-.026-.025-.078s.008-.077.025-.077l.631.013c.361.017.644.026.85.026s.442-.013.709-.039q1-.039,1.094-.038a3.028,3.028,0,0,1,1.842.521,1.846,1.846,0,0,1,.708,1.59,2.4,2.4,0,0,1-.425,1.449,2.572,2.572,0,0,1-1.075.869,3.336,3.336,0,0,1-1.346.284,2.537,2.537,0,0,1-.631-.065c-.026,0-.039-.021-.039-.064a.169.169,0,0,1,.02-.077c.013-.026.027-.034.045-.026a1.921,1.921,0,0,0,.463.051,2.284,2.284,0,0,0,1.552-.553,2.018,2.018,0,0,0,.638-1.61,2.427,2.427,0,0,0-.271-1.178,1.879,1.879,0,0,0-.74-.76,2.08,2.08,0,0,0-1.037-.264,3.774,3.774,0,0,0-.747.051.453.453,0,0,0-.315.239,1.528,1.528,0,0,0-.1.65v5.885a1.177,1.177,0,0,0,.116.6"/><path class="b" d="M91.459,5880.592c0,.052-.008.078-.025.078-.2,0-.357,0-.477-.013l-.669-.013-.683.013c-.112.008-.266.013-.464.013-.025,0-.038-.026-.038-.078s.013-.077.038-.077a1.637,1.637,0,0,0,.541-.064.388.388,0,0,0,.232-.251,1.886,1.886,0,0,0,.065-.573v-2.1a1.851,1.851,0,0,0-.3-1.159,1.1,1.1,0,0,0-.914-.374,1.786,1.786,0,0,0-.85.238,2.906,2.906,0,0,0-.8.651v2.743a1.893,1.893,0,0,0,.064.573.387.387,0,0,0,.238.251,1.706,1.706,0,0,0,.548.064c.017,0,.025.026.025.077s-.008.078-.025.078c-.2,0-.357,0-.477-.013l-.669-.013-.683.013c-.112.008-.266.013-.464.013-.025,0-.038-.026-.038-.078s.013-.077.038-.077a1.637,1.637,0,0,0,.541-.064.388.388,0,0,0,.232-.251,1.893,1.893,0,0,0,.064-.573v-6.684a1.848,1.848,0,0,0-.09-.682.322.322,0,0,0-.322-.206,1.567,1.567,0,0,0-.618.193h-.026c-.034,0-.057-.022-.07-.065s0-.068.032-.077l1.584-.773h.026a.08.08,0,0,1,.09.091v5.267a3.776,3.776,0,0,1,1-.857,2.056,2.056,0,0,1,1-.264,1.444,1.444,0,0,1,1.088.393,1.615,1.615,0,0,1,.38,1.165v2.5a1.893,1.893,0,0,0,.064.573.387.387,0,0,0,.238.251,1.706,1.706,0,0,0,.548.064c.017,0,.025.026.025.077"/><path class="b" d="M91.781,5880.592c0-.051.009-.077.026-.077a1.7,1.7,0,0,0,.547-.064.391.391,0,0,0,.239-.251,1.925,1.925,0,0,0,.064-.573v-2.434a1.729,1.729,0,0,0-.1-.683.335.335,0,0,0-.328-.206,1.438,1.438,0,0,0-.618.193H91.6c-.034,0-.06-.021-.077-.064s-.009-.073.025-.09l1.6-.747.052-.013a.1.1,0,0,1,.058.026.079.079,0,0,1,.032.064c0,.052-.005.221-.013.509s-.013.62-.013,1v2.447a2.117,2.117,0,0,0,.058.573.37.37,0,0,0,.232.251,1.7,1.7,0,0,0,.547.064c.026,0,.039.026.039.077s-.013.078-.039.078c-.2,0-.352,0-.463-.013l-.683-.013-.67.013c-.12.008-.279.013-.476.013-.017,0-.026-.026-.026-.078"/><path class="b" d="M106.771,5880.592c0,.052-.013.078-.039.078-.266,0-.476,0-.631-.013l-.863-.013-.8.013c-.129.008-.309.013-.541.013-.017,0-.026-.026-.026-.078s.009-.077.026-.077a2.228,2.228,0,0,0,.663-.071.424.424,0,0,0,.283-.251,1.388,1.388,0,0,0,.046-.566l-.219-5.988-3.014,6.941a.1.1,0,0,1-.1.051.161.161,0,0,1-.116-.051l-3.142-6.89-.013-.026-.1,5.666a1.371,1.371,0,0,0,.219.928,1.14,1.14,0,0,0,.863.257c.017,0,.026.026.026.077s-.009.078-.026.078c-.24,0-.425,0-.554-.013l-.695-.013-.631.013c-.112.008-.279.013-.5.013-.018,0-.026-.026-.026-.078s.008-.077.026-.077a.962.962,0,0,0,.766-.264,1.488,1.488,0,0,0,.238-.921l.129-6.1a1.327,1.327,0,0,0-1.043-.45c-.018,0-.026-.026-.026-.078s.008-.077.026-.077l.438.013a3.248,3.248,0,0,0,.334.013c.138,0,.254,0,.348-.013s.168-.013.219-.013a.348.348,0,0,1,.283.123,3.073,3.073,0,0,1,.309.547l2.9,6.258,2.884-6.606a.65.65,0,0,1,.174-.232.339.339,0,0,1,.213-.09c.034,0,.09,0,.167.013a2.9,2.9,0,0,0,.322.013l.58-.013c.085-.008.219-.013.4-.013.017,0,.026.026.026.077s-.009.078-.026.078a1.879,1.879,0,0,0-.947.174.73.73,0,0,0-.264.689l.245,5.988a1.574,1.574,0,0,0,.1.579.46.46,0,0,0,.322.245,3.083,3.083,0,0,0,.74.064c.026,0,.039.026.039.077"/><path class="b" d="M111.715,5879.974a.064.064,0,0,1,.065.058.069.069,0,0,1-.039.084l-1.326.631a.233.233,0,0,1-.1.026c-.095,0-.18-.076-.258-.226a1.585,1.585,0,0,1-.141-.611l-.709.438a3.02,3.02,0,0,1-.566.3,1.444,1.444,0,0,1-.5.09.979.979,0,0,1-.715-.258.83.83,0,0,1-.264-.618.907.907,0,0,1,.283-.65,2.7,2.7,0,0,1,.979-.547l1.481-.554v-.9q0-1.416-.876-1.416a.862.862,0,0,0-.682.277,1.483,1.483,0,0,0-.335.65,1.3,1.3,0,0,1-.123.354.3.3,0,0,1-.289.123.371.371,0,0,1-.284-.11.358.358,0,0,1-.1-.251.813.813,0,0,1,.38-.586,3.273,3.273,0,0,1,.921-.5,2.84,2.84,0,0,1,.966-.2.9.9,0,0,1,.766.335,1.544,1.544,0,0,1,.251.94v2.434a1.544,1.544,0,0,0,.11.682.39.39,0,0,0,.379.206,2.042,2.042,0,0,0,.709-.193Zm-1.815-.219v-1.442l-1.365.515a1.265,1.265,0,0,0-.515.335.664.664,0,0,0-.142.425.77.77,0,0,0,.193.528.684.684,0,0,0,.541.219,1.414,1.414,0,0,0,.67-.219Z"/><path class="b" d="M112.668,5877.264a4.139,4.139,0,0,0,.9.56,7.563,7.563,0,0,1,.695.386,1.547,1.547,0,0,1,.438.432,1.1,1.1,0,0,1,.18.637,1.423,1.423,0,0,1-.483,1.088,1.876,1.876,0,0,1-1.32.444,1.952,1.952,0,0,1-1.21-.4.172.172,0,0,1-.077-.154l-.026-.928c0-.025.023-.04.071-.045s.075.007.083.033a2.161,2.161,0,0,0,.625.946,1.413,1.413,0,0,0,.908.3,1.023,1.023,0,0,0,.669-.193.7.7,0,0,0,.232-.567,1.132,1.132,0,0,0-.161-.625,1.331,1.331,0,0,0-.4-.405,5.693,5.693,0,0,0-.65-.348,6.664,6.664,0,0,1-.676-.367,1.4,1.4,0,0,1-.425-.431,1.215,1.215,0,0,1-.174-.67,1.229,1.229,0,0,1,.515-1.056,2.006,2.006,0,0,1,1.211-.373,2.24,2.24,0,0,1,.914.193.28.28,0,0,1,.1.064.127.127,0,0,1,.02.077c0,.164,0,.292-.013.387l-.013.5c0,.017-.026.026-.077.026s-.078-.009-.078-.026a.807.807,0,0,0-.425-.689,1.617,1.617,0,0,0-.9-.277.766.766,0,0,0-.547.187.713.713,0,0,0-.2.547.943.943,0,0,0,.3.741"/><path class="b" d="M118.811,5880.064c.026,0,.047.02.064.058s.013.067-.013.084a4.18,4.18,0,0,1-.837.477,2.036,2.036,0,0,1-.747.141,1.449,1.449,0,0,1-.862-.238.9.9,0,0,1-.335-.792v-3.065a1.746,1.746,0,0,0-.045-.483.27.27,0,0,0-.174-.18,1.553,1.553,0,0,0-.451-.045c-.026,0-.038-.026-.038-.077s.012-.078.038-.078a1.147,1.147,0,0,0,.792-.27.876.876,0,0,0,.3-.683c0-.025.034-.038.1-.038s.09.013.09.038v.94a16.832,16.832,0,0,0,1.816-.128c.025,0,.047.028.064.083a.743.743,0,0,1,.026.213.578.578,0,0,1-.039.206c-.026.069-.056.1-.09.09a7.353,7.353,0,0,0-1.777-.193v3.232a.933.933,0,0,0,1.043,1.069,1.658,1.658,0,0,0,1.043-.348Z"/><path class="b" d="M123.1,5879.974a.089.089,0,0,1,.071.045.07.07,0,0,1,.006.084,2.789,2.789,0,0,1-1.841.721,2.184,2.184,0,0,1-1.249-.347,2.209,2.209,0,0,1-.779-.908,2.911,2.911,0,0,1,.1-2.614,2.7,2.7,0,0,1,.972-1,2.54,2.54,0,0,1,1.333-.367,1.416,1.416,0,0,1,1.088.393,1.51,1.51,0,0,1,.367,1.075.663.663,0,0,1-.032.251.121.121,0,0,1-.122.071l-3.207.013c-.017.206-.025.373-.025.5a2.944,2.944,0,0,0,.528,1.822,1.744,1.744,0,0,0,1.48.7,1.905,1.905,0,0,0,.683-.109,3.381,3.381,0,0,0,.618-.329Zm-2.762-3.766a1.878,1.878,0,0,0-.509,1.023l2.588-.051a1.419,1.419,0,0,0-.289-1.005,1.066,1.066,0,0,0-.831-.334,1.322,1.322,0,0,0-.959.367"/><path class="b" d="M127.136,5875.731a.414.414,0,0,1,.251.341.331.331,0,0,1-.1.232.362.362,0,0,1-.277.1.4.4,0,0,1-.232-.071c-.069-.047-.112-.075-.129-.083a.787.787,0,0,0-.489-.193.63.63,0,0,0-.38.154,4.731,4.731,0,0,0-.612.657v2.756a1.389,1.389,0,0,0,.09.573.493.493,0,0,0,.355.251,3.926,3.926,0,0,0,.843.064c.026,0,.039.026.039.077s-.013.078-.039.078c-.275,0-.494,0-.657-.013l-.927-.013-.682.013c-.112.008-.267.013-.464.013-.026,0-.039-.026-.039-.078s.013-.077.039-.077a1.641,1.641,0,0,0,.541-.064.39.39,0,0,0,.232-.251,1.925,1.925,0,0,0,.064-.573v-2.576a1.458,1.458,0,0,0-.1-.644.373.373,0,0,0-.361-.193,2.475,2.475,0,0,0-.721.193h-.025a.072.072,0,0,1-.071-.058.06.06,0,0,1,.032-.083l1.429-.67a.136.136,0,0,1,.065-.013c.068,0,.146.1.231.29a1.828,1.828,0,0,1,.129.74v.077a5.623,5.623,0,0,1,.837-.875,1,1,0,0,1,.593-.232,1.04,1.04,0,0,1,.534.148"/></g></g></svg>