<svg xmlns="http://www.w3.org/2000/svg" width="70.394" height="31.662" viewBox="0 0 70.394 31.662"><defs><style>.a{fill:#3c3c3b;}</style></defs><g transform="translate(-87.272 -354.361)"><g transform="translate(87.272 354.361)"><path class="a" d="M120.074,377.227l-.258-2.454-6.294,1.6c-.361-1.487-.2-1.714,1.077-2.018,1.46-.349,2.9-.774,4.363-1.114.6-.14.7-.425.616-.986-.2-1.332-.173-1.336-1.484-1.693a8.55,8.55,0,0,1-6.2-8.557,8.432,8.432,0,0,1,5.924-7.552c.1-.03.2-.045.428-.092a16.191,16.191,0,0,0-1.653,1.408,9.038,9.038,0,0,0-2.1,7.006,8.68,8.68,0,0,0,1.936,5.119,4.925,4.925,0,0,0,2.977,1.753c-.109-1.708-.267-3.307-.3-4.907-.043-1.96,0-3.921.033-5.881.049-2.676,2.239-4.918,5.886-4.255a5.8,5.8,0,0,1,3.747,2.454c3.263,4.536,2.26,12.515-5.806,13.691-.594.087-1.192.137-1.845.21v1.584c2.619-1,4.892,0,7.155,1.062-.85-.177-1.7-.352-2.549-.532a7.042,7.042,0,0,0-4.415.908.591.591,0,0,0-.264.443c-.024.922-.012,1.845-.012,2.755,3.612.713,4.847,1.945,4.692,4.642a4.433,4.433,0,0,1-4.233,4.138c-2.637.254-4.707-1.058-5.232-3.313C115.681,380.191,116.864,378.491,120.074,377.227Zm1.117-7.435a6.139,6.139,0,0,0,6.018-3.772,8.563,8.563,0,0,0,.443-5.61,6.9,6.9,0,0,0-2.561-4.169,1.989,1.989,0,0,0-3.249.969,6.193,6.193,0,0,0-.374,1.751q-.183,3.146-.268,6.3C121.16,366.751,121.191,368.246,121.191,369.792Zm-.2,14.638-.148.012-.723-6.768a8.54,8.54,0,0,0-1.639,1.274,4.632,4.632,0,0,0,.819,5.736,2.711,2.711,0,0,0,4.563-1.645,7.262,7.262,0,0,0-.145-2.816,2.845,2.845,0,0,0-2.727-2.239Z" transform="translate(-75.172 -354.361)"/><path class="a" d="M103.464,368.88c1.427,0,2.858-.046,4.284.018a1.951,1.951,0,0,1,1.921,1.292,2.258,2.258,0,0,1-.659,2.389c-.131.137-.276.261-.468.441.37.225.72.41,1.04.637a2.6,2.6,0,0,1,1.225,2.667,2.63,2.63,0,0,1-1.973,2.182,6.293,6.293,0,0,1-1.612.219,32.654,32.654,0,0,1-3.621-.1c1.02-.134.992-.849.993-1.536.007-2.207-.012-4.415.025-6.622C104.632,369.625,104.5,368.989,103.464,368.88Zm2.783,4.755c0,1.274-.013,2.516.013,3.759a.79.79,0,0,0,.31.529,1.72,1.72,0,0,0,2.6-1.022C109.442,375.4,108.35,373.241,106.247,373.635Zm-.027-.755c1.317.261,1.93-.045,2.125-.983a2.061,2.061,0,0,0-1.3-2.5c-.477-.1-.864-.087-.838.6C106.247,370.945,106.22,371.893,106.22,372.881Z" transform="translate(-79.313 -347.232)"/><path class="a" d="M121.666,369.852h2.6c-.079.292-.283.615-.215.862.464,1.7.986,3.38,1.556,5.292l2.437-6.172.288-.008,2.607,6.065c.579-1.9,1.113-3.575,1.578-5.273.052-.2-.283-.5-.436-.744h2.087a6.491,6.491,0,0,0-.795,1.239c-.783,2.122-1.508,4.266-2.26,6.4-.1.294-.24.577-.361.865l-.276.043-2.613-6.014-2.515,5.993-.26-.013a8.557,8.557,0,0,1-.383-.822c-.768-2.185-1.511-4.382-2.3-6.56A6.21,6.21,0,0,0,121.666,369.852Z" transform="translate(-70.367 -346.759)"/><path class="a" d="M96.075,369.9c-.707.148-.828.623-.805,1.234.025.728.006,1.459.006,2.239h4.437a22.986,22.986,0,0,0-.042-2.764c-.034-.286-.55-.513-.826-.75h3.3c-.747.185-.82.728-.813,1.368.022,1.827,0,3.654.019,5.481.012,1.09.031,1.089,1.052,1.436H98.928c.731-.133.819-.653.807-1.266-.018-.89,0-1.784,0-2.719h-4.4a31.329,31.329,0,0,0,.042,3.21c.031.3.573.544.825.767H92.923c.826-.11.732-.755.737-1.313.018-1.881,0-3.763.034-5.644.013-.72-.2-1.163-.975-1.278Z" transform="translate(-84.595 -346.744)"/><path class="a" d="M114.031,374.278c1.351,1.347,2.133,3.147,4.023,3.785a2.84,2.84,0,0,1-3.308-.859,13.489,13.489,0,0,1-1.274-1.7,1.337,1.337,0,0,0-1.729-.667,19.827,19.827,0,0,0,.04,2.58c.039.285.544.507.817.741h-3.244c.84-.158.792-.8.795-1.4.01-1.773-.016-3.547.019-5.32.015-.761-.006-1.424-.972-1.559,1.511,0,3.023-.051,4.531.019a1.888,1.888,0,0,1,1.815,1.313,2.141,2.141,0,0,1-.612,2.248C114.672,373.734,114.371,373.971,114.031,374.278Zm-2.374-3.757c0,1.072-.019,2.075.016,3.074a.711.711,0,0,0,.353.528,1.475,1.475,0,0,0,1.936-.74,2.158,2.158,0,0,0-.157-2.315A1.874,1.874,0,0,0,111.656,370.521Z" transform="translate(-76.495 -346.742)"/><path class="a" d="M90.811,374.207c1.632-.711,2.118-1.462,1.891-2.923a2.162,2.162,0,0,0-1.987-1.858c-.416-.013-.662.084-.658.585.025,2.452.042,4.906.021,7.358-.007.9.473,1.184,1.259,1.29H87.473c.947-.113.92-.841.926-1.514.019-2.154.031-4.306.022-6.46,0-1.292-.022-1.292-1.15-1.887,1.8.085,3.614.055,5.392.3a2.1,2.1,0,0,1,1.606,2.636A2.93,2.93,0,0,1,90.811,374.207Z" transform="translate(-87.272 -347.265)"/><path class="a" d="M135.814,371.73c-.549-1.266-1.225-1.678-2.278-1.328a1.543,1.543,0,0,0-.938.868,1.666,1.666,0,0,0,.461,1.186,5.209,5.209,0,0,0,1.087.713,8.59,8.59,0,0,1,1.372,1.022,2.437,2.437,0,0,1-1.037,4.035,5.841,5.841,0,0,1-1.861.182c-1.688-.049-2.03-.632-1.414-2.306.592,1.418,1.074,1.809,2.17,1.741a1.445,1.445,0,0,0,1.438-1.013,1.333,1.333,0,0,0-.565-1.577c-.527-.388-1.108-.7-1.65-1.066a2.464,2.464,0,0,1-1.271-2.773,2.693,2.693,0,0,1,2.576-1.682,4.574,4.574,0,0,1,.573,0C136.1,369.86,136.1,369.7,135.814,371.73Z" transform="translate(-65.817 -346.81)"/><path class="a" d="M100.187,369.853h3.172c-.975.268-.759,1.062-.762,1.745q-.011,2.5,0,5c.006,1.208.016,1.211,1.1,1.553h-3.48c.746-.177.789-.744.786-1.365q-.016-2.826.006-5.65C101.019,370.529,100.979,370,100.187,369.853Z" transform="translate(-80.924 -346.746)"/></g></g></svg>