<svg xmlns="http://www.w3.org/2000/svg" width="20.516" height="34.319" viewBox="0 0 20.516 34.319"><defs><style>.a{fill:#cbb085;}</style></defs><g transform="translate(-263.226 -1987.946)"><path class="a" d="M273.182,2022.265l-1.216-11.782c-1.166.382-2.3.817-3.471,1.119s-2.381.475-3.624.715c0-.461-.023-.884.006-1.3.033-.469.163-.579.624-.691,1.528-.371,3.057-.742,4.582-1.125.49-.123.972-.277,1.451-.436.093-.031.226-.159.22-.231-.065-.754-.154-1.506-.238-2.271a9.032,9.032,0,0,1-6.5-3.886,9.83,9.83,0,0,1-1.706-6.912c.5-3.924,4.293-7.208,7.369-7.515a6.216,6.216,0,0,0-2.108,1.414,8.79,8.79,0,0,0-2.277,4.561,11.641,11.641,0,0,0,.85,7.4,6.2,6.2,0,0,0,3.947,3.551c.121.034.244.056.426.1-.041-.646-.083-1.259-.117-1.872a76.51,76.51,0,0,1-.355-8.262,17.37,17.37,0,0,1,.368-3.109,4.723,4.723,0,0,1,4.5-3.579,6.494,6.494,0,0,1,6.12,3.158,10.02,10.02,0,0,1,1.228,8.687,8.584,8.584,0,0,1-6.143,5.81,12.5,12.5,0,0,1-3.432.521c-.1,0-.2.013-.333.022v1.832a4.9,4.9,0,0,0,.5-.15,5.577,5.577,0,0,1,3.315-.215,16.444,16.444,0,0,1,4.249,1.474,1.38,1.38,0,0,1,.174.111c.014.01.018.036.026.053-.733-.178-1.47-.344-2.2-.538a6.693,6.693,0,0,0-4.834.406,8.437,8.437,0,0,1-1.023.408c-.216.073-.265.2-.265.408,0,1.449-.009,2.9-.019,4.348q-.025,3.777-.056,7.554c0,.076-.009.151-.014.226Zm.238-17.118a.1.1,0,0,0,.057.018c.229-.008.459-.012.688-.034a6.563,6.563,0,0,0,5.6-3.543,9.56,9.56,0,0,0-.459-9.876,4.929,4.929,0,0,0-1.868-1.847,2.151,2.151,0,0,0-3.186,1.111,3.8,3.8,0,0,0-.334,1.116c-.134,1.5-.253,3-.319,4.5-.089,2.02-.13,4.043-.178,6.065C273.4,2003.48,273.42,2004.3,273.42,2005.147Z"/></g></svg>