<svg xmlns="http://www.w3.org/2000/svg" width="38.341" height="33.062" viewBox="0 0 38.341 33.062"><defs><style>.a{fill:#cbb085;}</style></defs><g transform="translate(-250.679 -2104.818)"><path class="a" d="M262.007,2110.041c0-1.042,0-2.03,0-3.019a5.186,5.186,0,0,1,.03-.686,1.672,1.672,0,0,1,1.717-1.515q6.092-.008,12.184,0a1.714,1.714,0,0,1,1.749,1.786c.018.962,0,1.924,0,2.886v.546h9.243c1.445,0,2.086.657,2.085,2.1q-.005,11.865,0,23.729a1.785,1.785,0,0,1-1.992,2.008l-34.352,0a1.754,1.754,0,0,1-1.985-1.96c-.015-3.038-.008-6.077-.008-9.116q0-7.375.006-14.751a1.745,1.745,0,0,1,1.223-1.921,3.343,3.343,0,0,1,.9-.086q4.3-.009,8.611,0Zm-9.562,26.092h34.815V2111.8h-1.731v3.547c0,2.779,0,5.559,0,8.338a1.743,1.743,0,0,1-1.949,2q-4.442.007-8.885,0h-2.228c0,.616.012,1.178,0,1.739a1.688,1.688,0,0,1-1.555,1.733,14.612,14.612,0,0,1-1.691.046,1.8,1.8,0,0,1-1.982-1.991c0-.5,0-.992,0-1.521h-.52c-3.511,0-7.023-.009-10.534.008a1.714,1.714,0,0,1-1.686-.784,2.848,2.848,0,0,1-.309-1.3c-.024-3.756-.013-7.513-.013-11.27v-.527h-1.727Zm20.022-12.188h11.258V2111.8H255.973v12.143h11.261c0-.582-.009-1.13,0-1.678a1.666,1.666,0,0,1,1.537-1.742,11.025,11.025,0,0,1,2.053-.016,1.694,1.694,0,0,1,1.639,1.837C272.47,2122.86,272.466,2123.379,272.466,2123.944Zm3.463-17.371H263.777v3.434h12.152Zm-5.228,20.848v-5.158H269v5.158Z"/></g></svg>