<svg xmlns="http://www.w3.org/2000/svg" width="38.142" height="33.062" viewBox="0 0 38.142 33.062"><defs><style>.a{fill:#cbb085;}</style></defs><g transform="translate(-117.334 -2104.818)"><g transform="translate(117.334 2104.818)"><path class="a" d="M125.2,2138.307a1.388,1.388,0,0,1-1.517,1.5c-1.61.026-3.221.023-4.83,0a1.368,1.368,0,0,1-1.508-1.5q-.013-6.865,0-13.73a1.326,1.326,0,0,1,1.407-1.467c1.652-.04,3.305-.036,4.957-.005a1.384,1.384,0,0,1,1.489,1.53c.007.335.04.668.069,1.112.453,0,.868.013,1.28,0a14.1,14.1,0,0,1,6.931,1.258,14.555,14.555,0,0,0,7.262,1.317c2.7-.1,3.192.346,3.741,2.941,2.608-.879,5.2-1.768,7.806-2.624a2.193,2.193,0,0,1,2.992,1.3,2.277,2.277,0,0,1-1.145,2.989c-4.514,2.51-9.005,5.063-13.573,7.469a4.229,4.229,0,0,1-2.882.249c-3.327-.969-6.587-2.17-9.894-3.216a14.127,14.127,0,0,0-2.511-.323C125.237,2137.642,125.206,2137.974,125.2,2138.307Zm.064-2.477c4.432.477,8.375,2.421,12.518,3.673a2.959,2.959,0,0,0,2.521-.235q6.475-3.638,12.975-7.229c.7-.387,1.234-.82.868-1.687-.377-.891-1.068-.765-1.817-.5-1.153.416-2.361.694-3.482,1.179a25.943,25.943,0,0,1-12.856,2.171c-.989-.091-1.751.143-1.971,1.3-.042.219-.456.367-.7.548-.145-.309-.434-.627-.413-.923a2.474,2.474,0,0,1,2.584-2.134c2.033-.023,4.066-.032,6.1,0,.91.016,1.526-.256,1.516-1.243a1.232,1.232,0,0,0-1.534-1.279c-3.508.365-6.714-.592-9.964-1.817-1.91-.72-4.1-.682-6.347-1.01Zm-6.616-11.478v14.158h5.247v-14.158Z" transform="translate(-117.334 -2107.727)"/><path class="a" d="M155.032,2113.557a9,9,0,0,1-8.872,9.075,8.907,8.907,0,1,1,8.872-9.075Zm-1.211.143a7.725,7.725,0,1,0-7.648,7.721A7.768,7.768,0,0,0,153.821,2113.7Z" transform="translate(-120.502 -2104.818)"/><path class="a" d="M146.687,2119.046a14.629,14.629,0,0,1-1.269-1.276,5.953,5.953,0,0,1-.562-1.22,18.433,18.433,0,0,0,2.576.3,1.211,1.211,0,0,0,.855-.715c.073-.209-.263-.682-.533-.863-.449-.3-1.116-.345-1.464-.713a3.369,3.369,0,0,1-1.114-1.9c0-.575.756-1.158,1.2-1.72.282-.357.6-.684.91-1.021.148-.164.291-.437.457-.453s.556.232.543.324c-.1.732.273,1.024.883,1.3.218.1.208.694.325,1.144a8.894,8.894,0,0,0-1.913-.372,1.292,1.292,0,0,0-.913.662c-.082.167.265.663.531.854a6.263,6.263,0,0,0,1.271.557,2.063,2.063,0,0,1-.1,3.958c-.562.16-1,.333-1.03,1.054-.01.208-.481.394-.74.591Z" transform="translate(-121.719 -2105.557)"/></g></g></svg>