<svg xmlns="http://www.w3.org/2000/svg" width="20.516" height="34.319" viewBox="0 0 20.516 34.319"><defs><style>.a{fill:#cbb085;}</style></defs><g transform="translate(-263.226 -693.221)"><path class="a" d="M273.182,727.54l-1.216-11.783c-1.166.382-2.3.817-3.471,1.12s-2.381.475-3.624.714c0-.46-.023-.884.006-1.3.033-.469.163-.579.624-.691,1.528-.372,3.057-.742,4.582-1.125.49-.123.972-.277,1.451-.437.093-.03.226-.158.22-.231-.065-.754-.154-1.506-.238-2.271a9.026,9.026,0,0,1-6.5-3.886,9.828,9.828,0,0,1-1.706-6.912c.5-3.923,4.293-7.208,7.369-7.514a6.188,6.188,0,0,0-2.108,1.414,8.786,8.786,0,0,0-2.277,4.561,11.639,11.639,0,0,0,.85,7.4,6.2,6.2,0,0,0,3.947,3.552c.121.034.244.056.426.1-.041-.646-.083-1.259-.117-1.872a76.518,76.518,0,0,1-.355-8.263,17.347,17.347,0,0,1,.368-3.108,4.722,4.722,0,0,1,4.5-3.579,6.492,6.492,0,0,1,6.12,3.158,10.019,10.019,0,0,1,1.228,8.687,8.58,8.58,0,0,1-6.143,5.809,12.423,12.423,0,0,1-3.432.521c-.1,0-.2.013-.333.022v1.833a5.154,5.154,0,0,0,.5-.15,5.577,5.577,0,0,1,3.315-.215,16.4,16.4,0,0,1,4.249,1.474,1.379,1.379,0,0,1,.174.111c.014.01.018.035.026.053-.733-.179-1.47-.344-2.2-.539a6.7,6.7,0,0,0-4.834.406,8.287,8.287,0,0,1-1.023.409c-.216.073-.265.2-.265.408,0,1.449-.009,2.9-.019,4.347q-.025,3.777-.056,7.555c0,.075-.009.151-.014.226Zm.238-17.118a.105.105,0,0,0,.057.018c.229-.009.459-.013.688-.034a6.562,6.562,0,0,0,5.6-3.544,9.558,9.558,0,0,0-.459-9.875,4.916,4.916,0,0,0-1.868-1.847,2.15,2.15,0,0,0-3.186,1.111,3.794,3.794,0,0,0-.334,1.116c-.134,1.5-.253,3-.319,4.5-.089,2.021-.13,4.044-.178,6.066C273.4,708.755,273.42,709.579,273.42,710.422Z"/></g></svg>