<svg xmlns="http://www.w3.org/2000/svg" width="43.342" height="41.594" viewBox="0 0 43.342 41.594"><defs><style>.a{fill:#cbb085;}</style></defs><g transform="translate(-382.599 -2223.784)"><path class="a" d="M428.18,2255.369c0-2.574-.078-5.151.03-7.721a2.73,2.73,0,0,0-2.152-3.083,20.111,20.111,0,0,0-11.687.018,2.833,2.833,0,0,0-2.233,3.056c.066,5.148.054,10.3.006,15.444a2.616,2.616,0,0,0,1.945,2.831,19.468,19.468,0,0,0,12.229.028,2.542,2.542,0,0,0,1.884-2.851C428.126,2260.518,428.179,2257.942,428.18,2255.369Zm-2.418,3.355a13.671,13.671,0,0,1-5.439.842,14.278,14.278,0,0,1-5.639-.833c-.5-.2-1.109-.463-.845-1.1.249-.6.822-.125,1.209-.028a21.07,21.07,0,0,0,10.381,0c.382-.095.956-.58,1.2.043C426.881,2258.292,426.259,2258.517,425.762,2258.724Zm.08,2.86a17.244,17.244,0,0,1-11.214,0c-.434-.186-.953-.428-.8-.958.2-.7.749-.247,1.136-.15a21.826,21.826,0,0,0,10.54,0c.39-.094.938-.547,1.14.144C426.8,2261.152,426.277,2261.4,425.842,2261.584Zm-.017-11.524c-1.781.835-3.722.7-5.5.961-1.985-.227-3.914-.154-5.7-.961-.436-.2-.956-.425-.792-.954.2-.653.744-.253,1.149-.15a21.33,21.33,0,0,0,10.524-.007c.4-.1.943-.517,1.136.164C426.792,2249.654,426.246,2249.863,425.826,2250.06Zm-.256,3.013a18.926,18.926,0,0,1-5.429.833,19.835,19.835,0,0,1-5.235-.818c-.536-.175-1.313-.454-1.073-1.165.251-.741.874-.122,1.318-.026a23.87,23.87,0,0,0,10.154.007c.441-.094,1.059-.751,1.328,0C426.892,2252.63,426.1,2252.9,425.57,2253.073Zm1.026-6.584c-2.869,2.077-9.629,2.113-12.833-.009A17.361,17.361,0,0,1,426.6,2246.489Zm-12.766,8.217c.279-.616.816-.057,1.2.031a23.023,23.023,0,0,0,10.361.007c.4-.09,1.031-.768,1.264.112.167.634-.486.871-.975,1.043a18.246,18.246,0,0,1-11.048-.048C414.141,2255.665,413.553,2255.32,413.831,2254.706Zm12.068,9.742a16.467,16.467,0,0,1-5.823.97,16.824,16.824,0,0,1-5.374-.906c-.478-.183-1.113-.484-.883-1.1.241-.653.783-.1,1.17-.02a24.2,24.2,0,0,0,10.539-.018c.38-.085.886-.646,1.127.078C426.832,2263.98,426.322,2264.276,425.9,2264.448Z" transform="translate(-2.273 -1.533)"/><path class="a" d="M417.435,2239.7c.726,0,1.319.033,1.316,1,0,.457.11,1.038.74.934.536-.089.546-.641.6-1.112.149-1.437-.243-2.2-1.925-2.174-5.551.079-11.105.03-16.658.03-5.618,0-11.238.032-16.856-.022-1.386-.014-2.068.319-2.048,1.864.062,5.023.043,10.047.007,15.072-.009,1.251.423,1.813,1.733,1.766,1.914-.068,3.833-.017,5.751-.017q8.23,0,16.46-.007c.622,0,1.583.232,1.662-.6.092-.974-.906-.673-1.5-.742a10.158,10.158,0,0,0-1.189-.009q-9.916,0-19.832.005c-.96,0-1.774.115-1.745-1.36.09-4.427.058-8.857.014-13.286-.01-1.027.307-1.359,1.352-1.355" transform="translate(0 -1.121)"/><path class="a" d="M384.7,2235.877c.6.125.856-.464.973-.987.3-1.352.618-2.7.853-4.065.146-.845.451-1.071,1.33-.847,2.3.586,4.632,1.053,6.95,1.572q9.848,2.2,19.656,4.4c.532.206,1.107.133,1.2-.363.142-.747-.558-.906-1.124-1.033-9.143-2.037-18.29-4.054-27.426-6.119-.9-.2-1.415-.021-1.62.867-.415,1.8-.8,3.606-1.222,5.405C384.151,2235.22,384.235,2235.78,384.7,2235.877Z" transform="translate(-0.125 -0.352)"/><path class="a" d="M401.525,2254.366a6.417,6.417,0,1,0,.126-12.833,6.417,6.417,0,0,0-.126,12.833Zm.019-11.547a5.282,5.282,0,0,1,5.216,5.143,5.168,5.168,0,0,1-5.235,5.076,5.067,5.067,0,0,1-5.066-5.194A5.179,5.179,0,0,1,401.545,2242.819Z" transform="translate(-0.974 -1.366)"/><path class="a" d="M386.208,2251.315a8.01,8.01,0,0,0,8.621,3.035c.33-.1.653-.228.7-.6.062-.522-.362-.684-.743-.7-1.253-.042-2.507-.008-3.76-.035a2.759,2.759,0,0,1-1.533-.2c-1.841-1.137-2.984-4.329-2.413-6.8.366-1.581,2.912-3.046,5.107-3.185,1.128-.072,3.1.8,3.185-.734.06-1.111-2-.536-3.09-.557-4.346-.081-6.489,2.061-6.489,6.474C386,2249,385.437,2250.208,386.208,2251.315Z" transform="translate(-0.245 -1.357)"/><path class="a" d="M393.183,2227.5c.689.376,1.084-.248,1.256-.82.45-1.494,1.279-1.414,2.507-.871,3.424,1.514,6.9,2.917,10.353,4.356,1.395.582,2.8,1.128,4.192,1.721.585.25.986.138,1.206-.292-.032-1.043-.861-1.046-1.424-1.283-4.663-1.96-9.344-3.877-14.017-5.813-2.793-1.156-2.929-1.108-4.06,1.6C393,2226.575,392.58,2227.176,393.183,2227.5Z" transform="translate(-0.791 0)"/><path class="a" d="M413.694,2242.891c.4-.019.818-.211.85-.663.043-.616-.472-.7-.928-.721a14.5,14.5,0,0,0-2.548.007c-1.085.153-3.1-.585-3.056.617.054,1.568,2.057.4,2.917.773C411.994,2242.9,412.846,2242.933,413.694,2242.891Z" transform="translate(-1.956 -1.358)"/><path class="a" d="M401.938,2245.067a.471.471,0,0,1,.5.476c.006.124.08.174.173.233.23.147.455.3.673.465a.7.7,0,0,1,.179.231.5.5,0,0,1-.131.63.525.525,0,0,1-.659-.008,1.048,1.048,0,0,1-.135-.128.849.849,0,0,0-.939-.22.444.444,0,0,0-.354.42.37.37,0,0,0,.264.409c.3.129.623.227.925.362a3.429,3.429,0,0,1,.663.366,1.338,1.338,0,0,1,.109,2.125,3.844,3.844,0,0,1-.6.407.289.289,0,0,0-.167.255.509.509,0,0,1-.445.48.476.476,0,0,1-.545-.379.492.492,0,0,0-.361-.4,7.677,7.677,0,0,1-.688-.358.965.965,0,0,1-.216-.174.527.527,0,0,1-.052-.706.518.518,0,0,1,.689-.1c.148.086.291.179.44.26a1.549,1.549,0,0,0,.822.194.536.536,0,0,0,.463-.238.394.394,0,0,0-.165-.618c-.264-.118-.539-.211-.81-.313a2.249,2.249,0,0,1-1.158-.794,1.217,1.217,0,0,1-.024-1.4,1.849,1.849,0,0,1,.8-.717.333.333,0,0,0,.227-.3A.485.485,0,0,1,401.938,2245.067Z" transform="translate(-1.341 -1.638)"/></g></svg>