<svg xmlns="http://www.w3.org/2000/svg" width="39.898" height="31.66" viewBox="0 0 39.898 31.66"><defs><style>.a{fill:#cbb085;}</style></defs><g transform="translate(-378.069 -2104.661)"><path class="a" d="M388.834,2111.38c0-.733,0-1.4,0-2.057a4.587,4.587,0,0,1,4.672-4.661q9.875,0,19.751,0a4.562,4.562,0,0,1,4.534,3.38,5.979,5.979,0,0,1,.163,1.474c.014,3.269-.006,6.539.011,9.809a4.665,4.665,0,0,1-2.465,4.364.616.616,0,0,0-.224.461c-.011,1.506.007,3.014,0,4.52a.825.825,0,0,1-1.091.879,1.682,1.682,0,0,1-.535-.4c-1.524-1.522-3.053-3.042-4.555-4.585a1.3,1.3,0,0,0-1.215-.5,4.49,4.49,0,0,1-.68.006c0,.8.009,1.569,0,2.331a4.575,4.575,0,0,1-3.559,4.394,5.47,5.47,0,0,1-1.209.121q-5.492-.039-10.983-.1c-1.2-.011-2.409-.038-3.613-.023a1.035,1.035,0,0,0-.66.264c-1.552,1.536-3.083,3.094-4.621,4.646-.117.118-.233.236-.353.35a.811.811,0,0,1-.954.183.8.8,0,0,1-.488-.8c.005-1.507,0-3.014.016-4.52a.584.584,0,0,0-.339-.6,4.442,4.442,0,0,1-2.358-4.046q-.02-5.13,0-10.259a4.57,4.57,0,0,1,4.65-4.634q2.848-.008,5.7-.006Zm-6.4,22.043c.168-.157.256-.234.34-.317,1.18-1.185,2.367-2.364,3.536-3.56a1.367,1.367,0,0,1,1.078-.446c2.2.035,4.4.043,6.6.064,2.833.027,5.665.066,8.5.083a2.923,2.923,0,0,0,3.053-2.908q.021-5.2,0-10.4a2.921,2.921,0,0,0-2.93-2.892c-.769-.007-1.537,0-2.306,0q-8.747,0-17.493,0a2.872,2.872,0,0,0-3.039,2.811q-.051,5.289,0,10.577a2.763,2.763,0,0,0,1.921,2.644c.615.248.739.4.74,1.073C382.435,2131.2,382.433,2132.256,382.433,2133.423Zm31.171-6.766c0-1.128,0-2.208,0-3.288a.867.867,0,0,1,.677-.984,2.9,2.9,0,0,0,2.009-2.778c.02-3.45.026-6.9,0-10.351a2.884,2.884,0,0,0-2.979-2.921c-.89-.006-1.779,0-2.667,0q-8.521,0-17.041,0a2.943,2.943,0,0,0-3.1,2.863c-.024.571,0,1.145-.031,1.716-.017.367.108.5.489.494,3.948-.017,7.9-.033,11.843-.018a4.579,4.579,0,0,1,4.4,4.421c.008,2.019.006,4.038.008,6.057v.529c.482,0,.916.023,1.346-.006a1.475,1.475,0,0,1,1.239.5C411.029,2124.146,412.3,2125.37,413.6,2126.657Z"/><path class="a" d="M394.63,2133.88h-8.993c-.593,0-.967-.322-.971-.83a.847.847,0,0,1,.957-.85q8.066,0,16.132,0c.647,0,1.295-.011,1.942,0,.6.006.968.329.972.836,0,.527-.377.846-1,.846Z" transform="translate(-1.898 -7.923)"/><path class="a" d="M394.714,2126.2h8.815c.09,0,.181,0,.271,0a.849.849,0,0,1,.875.846.818.818,0,0,1-.848.816c-.693.019-1.387.008-2.08.008l-15.55.006a7.668,7.668,0,0,1-.768-.02.8.8,0,0,1-.756-.806.823.823,0,0,1,.773-.845c.209-.021.422-.011.633-.011h8.636Z" transform="translate(-1.9 -6.194)"/><path class="a" d="M394.621,2121.859H385.63c-.6,0-.964-.319-.964-.832s.366-.832.967-.832q9.013,0,18.026,0c.663,0,1.034.332,1.009.881a.824.824,0,0,1-.919.784c-1.25.006-2.5,0-3.75,0Z" transform="translate(-1.898 -4.468)"/></g></svg>